<mxfile host="Electron" agent="Mozilla/5.0 (Windows NT 10.0; Win64; x64) AppleWebKit/537.36 (KHTML, like Gecko) draw.io/27.0.2 Chrome/134.0.6998.205 Electron/35.3.0 Safari/537.36" version="27.0.2">
  <diagram name="Page-1" id="Wko57OiWHfdCbStGYta5">
    <mxGraphModel dx="1892" dy="634" grid="0" gridSize="10" guides="1" tooltips="1" connect="1" arrows="1" fold="1" page="1" pageScale="1" pageWidth="850" pageHeight="1100" math="0" shadow="0">
      <root>
        <mxCell id="0" />
        <mxCell id="1" parent="0" />
        <mxCell id="Dq3j0e-RF0Yl39A6yDo8-3" value="&lt;p style=&quot;margin:0px;margin-top:6px;text-align:center;&quot;&gt;User Interface&lt;/p&gt;&lt;hr size=&quot;1&quot; style=&quot;border-style:solid;&quot;&gt;&lt;p style=&quot;margin:0px;margin-left:8px;&quot;&gt;+ login()&lt;/p&gt;&lt;p style=&quot;margin:0px;margin-left:8px;&quot;&gt;+ browseMovies()&lt;/p&gt;&lt;p style=&quot;margin:0px;margin-left:8px;&quot;&gt;+ selectSeats()&lt;/p&gt;&lt;p style=&quot;margin:0px;margin-left:8px;&quot;&gt;+ getTichet()&lt;/p&gt;&lt;p style=&quot;margin:0px;margin-left:8px;&quot;&gt;&lt;br&gt;&lt;/p&gt;&lt;p style=&quot;margin:0px;margin-left:8px;&quot;&gt;&lt;br&gt;&lt;/p&gt;" style="align=left;overflow=fill;html=1;dropTarget=0;whiteSpace=wrap;fillColor=default;gradientColor=none;strokeColor=default;" vertex="1" parent="1">
          <mxGeometry x="92" y="112" width="210" height="109" as="geometry" />
        </mxCell>
        <mxCell id="Dq3j0e-RF0Yl39A6yDo8-4" value="" style="shape=component;jettyWidth=8;jettyHeight=4;" vertex="1" parent="Dq3j0e-RF0Yl39A6yDo8-3">
          <mxGeometry x="1" width="20" height="20" relative="1" as="geometry">
            <mxPoint x="-24" y="4" as="offset" />
          </mxGeometry>
        </mxCell>
        <mxCell id="Dq3j0e-RF0Yl39A6yDo8-5" value="&lt;p style=&quot;margin:0px;margin-top:6px;text-align:center;&quot;&gt;Movie Manager Interface&lt;/p&gt;&lt;hr size=&quot;1&quot; style=&quot;border-style:solid;&quot;&gt;&lt;p style=&quot;margin:0px;margin-left:8px;&quot;&gt;+ addMovie()&lt;/p&gt;&lt;p style=&quot;margin:0px;margin-left:8px;&quot;&gt;+ updateMovie()&lt;/p&gt;&lt;p style=&quot;margin:0px;margin-left:8px;&quot;&gt;+ deleteMovie()&lt;/p&gt;" style="align=left;overflow=fill;html=1;dropTarget=0;whiteSpace=wrap;fillColor=default;gradientColor=none;strokeColor=default;" vertex="1" parent="1">
          <mxGeometry x="604" y="112" width="200" height="100" as="geometry" />
        </mxCell>
        <mxCell id="Dq3j0e-RF0Yl39A6yDo8-6" value="" style="shape=component;jettyWidth=8;jettyHeight=4;" vertex="1" parent="Dq3j0e-RF0Yl39A6yDo8-5">
          <mxGeometry x="1" width="20" height="20" relative="1" as="geometry">
            <mxPoint x="-24" y="4" as="offset" />
          </mxGeometry>
        </mxCell>
        <mxCell id="Dq3j0e-RF0Yl39A6yDo8-8" value="&lt;p style=&quot;margin:0px;margin-top:6px;text-align:center;&quot;&gt;Admin Interface&lt;/p&gt;&lt;hr size=&quot;1&quot; style=&quot;border-style:solid;&quot;&gt;&lt;p style=&quot;margin:0px;margin-left:8px;&quot;&gt;+ manageUsers()&lt;/p&gt;&lt;p style=&quot;margin:0px;margin-left:8px;&quot;&gt;+ scheduleShowtime()&lt;/p&gt;&lt;p style=&quot;margin:0px;margin-left:8px;&quot;&gt;+ updateServers()&lt;/p&gt;&lt;p style=&quot;margin:0px;margin-left:8px;&quot;&gt;+ manageHals()&lt;/p&gt;" style="align=left;overflow=fill;html=1;dropTarget=0;whiteSpace=wrap;fillColor=default;gradientColor=none;strokeColor=default;" vertex="1" parent="1">
          <mxGeometry x="353" y="112" width="195" height="105" as="geometry" />
        </mxCell>
        <mxCell id="Dq3j0e-RF0Yl39A6yDo8-9" value="" style="shape=component;jettyWidth=8;jettyHeight=4;" vertex="1" parent="Dq3j0e-RF0Yl39A6yDo8-8">
          <mxGeometry x="1" width="20" height="20" relative="1" as="geometry">
            <mxPoint x="-24" y="4" as="offset" />
          </mxGeometry>
        </mxCell>
        <mxCell id="Dq3j0e-RF0Yl39A6yDo8-11" value="&lt;p style=&quot;margin:0px;margin-top:6px;text-align:center;&quot;&gt;Authentication Service&lt;/p&gt;&lt;hr size=&quot;1&quot; style=&quot;border-style:solid;&quot;&gt;&lt;p style=&quot;margin:0px;margin-left:8px;&quot;&gt;+&lt;span style=&quot;background-color: transparent; color: light-dark(rgb(0, 0, 0), rgb(255, 255, 255));&quot;&gt;&amp;nbsp;validateUser()&lt;/span&gt;&lt;/p&gt;&lt;p style=&quot;margin:0px;margin-left:8px;&quot;&gt;+ logout&lt;span style=&quot;background-color: transparent; color: light-dark(rgb(0, 0, 0), rgb(255, 255, 255));&quot;&gt;&lt;/span&gt;&lt;/p&gt;" style="align=left;overflow=fill;html=1;dropTarget=0;whiteSpace=wrap;fillColor=default;gradientColor=none;strokeColor=default;" vertex="1" parent="1">
          <mxGeometry x="-52" y="370" width="201" height="105" as="geometry" />
        </mxCell>
        <mxCell id="Dq3j0e-RF0Yl39A6yDo8-12" value="" style="shape=component;jettyWidth=8;jettyHeight=4;" vertex="1" parent="Dq3j0e-RF0Yl39A6yDo8-11">
          <mxGeometry x="1" width="20" height="20" relative="1" as="geometry">
            <mxPoint x="-24" y="4" as="offset" />
          </mxGeometry>
        </mxCell>
        <mxCell id="Dq3j0e-RF0Yl39A6yDo8-14" value="&lt;p style=&quot;margin:0px;margin-top:6px;text-align:center;&quot;&gt;Reservation Service&lt;/p&gt;&lt;hr size=&quot;1&quot; style=&quot;border-style:solid;&quot;&gt;&lt;p style=&quot;margin:0px;margin-left:8px;&quot;&gt;+ createTicket()&lt;/p&gt;&lt;p style=&quot;margin:0px;margin-left:8px;&quot;&gt;+ reserveSeat&lt;/p&gt;&lt;p style=&quot;margin:0px;margin-left:8px;&quot;&gt;&lt;br&gt;&lt;/p&gt;" style="align=left;overflow=fill;html=1;dropTarget=0;whiteSpace=wrap;fillColor=default;gradientColor=none;strokeColor=default;" vertex="1" parent="1">
          <mxGeometry x="482" y="370" width="211" height="105" as="geometry" />
        </mxCell>
        <mxCell id="Dq3j0e-RF0Yl39A6yDo8-15" value="" style="shape=component;jettyWidth=8;jettyHeight=4;" vertex="1" parent="Dq3j0e-RF0Yl39A6yDo8-14">
          <mxGeometry x="1" width="20" height="20" relative="1" as="geometry">
            <mxPoint x="-24" y="4" as="offset" />
          </mxGeometry>
        </mxCell>
        <mxCell id="Dq3j0e-RF0Yl39A6yDo8-17" value="&lt;p style=&quot;margin:0px;margin-top:6px;text-align:center;&quot;&gt;Database&lt;/p&gt;&lt;hr size=&quot;1&quot; style=&quot;border-style:solid;&quot;&gt;&lt;p style=&quot;margin:0px;margin-left:8px;&quot;&gt;- storeUserData()&lt;/p&gt;&lt;p style=&quot;margin:0px;margin-left:8px;&quot;&gt;- storeMovieData()&lt;/p&gt;&lt;p style=&quot;margin:0px;margin-left:8px;&quot;&gt;storeTicketData()&lt;/p&gt;" style="align=left;overflow=fill;html=1;dropTarget=0;whiteSpace=wrap;fillColor=default;gradientColor=none;strokeColor=default;" vertex="1" parent="1">
          <mxGeometry x="326.5" y="586" width="248" height="109" as="geometry" />
        </mxCell>
        <mxCell id="Dq3j0e-RF0Yl39A6yDo8-18" value="" style="shape=component;jettyWidth=8;jettyHeight=4;" vertex="1" parent="Dq3j0e-RF0Yl39A6yDo8-17">
          <mxGeometry x="1" width="20" height="20" relative="1" as="geometry">
            <mxPoint x="-24" y="4" as="offset" />
          </mxGeometry>
        </mxCell>
        <mxCell id="Dq3j0e-RF0Yl39A6yDo8-21" value="&lt;p style=&quot;margin:0px;margin-top:6px;text-align:center;&quot;&gt;Movie Management Service&lt;/p&gt;&lt;hr size=&quot;1&quot; style=&quot;border-style:solid;&quot;&gt;&lt;p style=&quot;margin:0px;margin-left:8px;&quot;&gt;+ addMovie()&lt;/p&gt;&lt;p style=&quot;margin:0px;margin-left:8px;&quot;&gt;+&amp;nbsp;scheduleShowtime()&lt;/p&gt;" style="align=left;overflow=fill;html=1;dropTarget=0;whiteSpace=wrap;fillColor=default;gradientColor=none;strokeColor=default;" vertex="1" parent="1">
          <mxGeometry x="208" y="370" width="223" height="104" as="geometry" />
        </mxCell>
        <mxCell id="Dq3j0e-RF0Yl39A6yDo8-22" value="" style="shape=component;jettyWidth=8;jettyHeight=4;" vertex="1" parent="Dq3j0e-RF0Yl39A6yDo8-21">
          <mxGeometry x="1" width="20" height="20" relative="1" as="geometry">
            <mxPoint x="-24" y="4" as="offset" />
          </mxGeometry>
        </mxCell>
        <mxCell id="Dq3j0e-RF0Yl39A6yDo8-24" value="&lt;p style=&quot;margin:0px;margin-top:6px;text-align:center;&quot;&gt;Payment Gateway Service&lt;/p&gt;&lt;hr size=&quot;1&quot; style=&quot;border-style:solid;&quot;&gt;&lt;p style=&quot;margin:0px;margin-left:8px;&quot;&gt;+ processPayment&lt;/p&gt;" style="align=left;overflow=fill;html=1;dropTarget=0;whiteSpace=wrap;fillColor=default;gradientColor=none;strokeColor=default;" vertex="1" parent="1">
          <mxGeometry x="732" y="370" width="208" height="104" as="geometry" />
        </mxCell>
        <mxCell id="Dq3j0e-RF0Yl39A6yDo8-25" value="" style="shape=component;jettyWidth=8;jettyHeight=4;" vertex="1" parent="Dq3j0e-RF0Yl39A6yDo8-24">
          <mxGeometry x="1" width="20" height="20" relative="1" as="geometry">
            <mxPoint x="-24" y="4" as="offset" />
          </mxGeometry>
        </mxCell>
        <mxCell id="Dq3j0e-RF0Yl39A6yDo8-27" value="Use" style="endArrow=open;endSize=12;dashed=1;html=1;rounded=0;exitX=0.5;exitY=1;exitDx=0;exitDy=0;entryX=0.662;entryY=-0.019;entryDx=0;entryDy=0;entryPerimeter=0;" edge="1" parent="1" source="Dq3j0e-RF0Yl39A6yDo8-5" target="Dq3j0e-RF0Yl39A6yDo8-24">
          <mxGeometry width="160" relative="1" as="geometry">
            <mxPoint x="686" y="285" as="sourcePoint" />
            <mxPoint x="846" y="285" as="targetPoint" />
          </mxGeometry>
        </mxCell>
        <mxCell id="Dq3j0e-RF0Yl39A6yDo8-28" value="Use" style="endArrow=open;endSize=12;dashed=1;html=1;rounded=0;exitX=0.136;exitY=1.04;exitDx=0;exitDy=0;exitPerimeter=0;entryX=0.557;entryY=0.011;entryDx=0;entryDy=0;entryPerimeter=0;" edge="1" parent="1" source="Dq3j0e-RF0Yl39A6yDo8-5" target="Dq3j0e-RF0Yl39A6yDo8-11">
          <mxGeometry width="160" relative="1" as="geometry">
            <mxPoint x="529" y="260" as="sourcePoint" />
            <mxPoint x="51" y="369" as="targetPoint" />
          </mxGeometry>
        </mxCell>
        <mxCell id="Dq3j0e-RF0Yl39A6yDo8-29" value="Use" style="endArrow=open;endSize=12;dashed=1;html=1;rounded=0;exitX=0.25;exitY=1;exitDx=0;exitDy=0;entryX=0.703;entryY=-0.012;entryDx=0;entryDy=0;entryPerimeter=0;" edge="1" parent="1" source="Dq3j0e-RF0Yl39A6yDo8-5" target="Dq3j0e-RF0Yl39A6yDo8-21">
          <mxGeometry width="160" relative="1" as="geometry">
            <mxPoint x="473" y="309" as="sourcePoint" />
            <mxPoint x="633" y="309" as="targetPoint" />
          </mxGeometry>
        </mxCell>
        <mxCell id="Dq3j0e-RF0Yl39A6yDo8-30" value="Use" style="endArrow=open;endSize=12;dashed=1;html=1;rounded=0;exitX=0.25;exitY=1;exitDx=0;exitDy=0;entryX=0.559;entryY=0;entryDx=0;entryDy=0;entryPerimeter=0;" edge="1" parent="1" source="Dq3j0e-RF0Yl39A6yDo8-5" target="Dq3j0e-RF0Yl39A6yDo8-14">
          <mxGeometry width="160" relative="1" as="geometry">
            <mxPoint x="627" y="285" as="sourcePoint" />
            <mxPoint x="600" y="364" as="targetPoint" />
          </mxGeometry>
        </mxCell>
        <mxCell id="Dq3j0e-RF0Yl39A6yDo8-31" value="Use" style="endArrow=open;endSize=12;dashed=1;html=1;rounded=0;exitX=0.25;exitY=1;exitDx=0;exitDy=0;entryX=0.056;entryY=0.004;entryDx=0;entryDy=0;entryPerimeter=0;" edge="1" parent="1" source="Dq3j0e-RF0Yl39A6yDo8-3" target="Dq3j0e-RF0Yl39A6yDo8-11">
          <mxGeometry width="160" relative="1" as="geometry">
            <mxPoint x="56" y="313" as="sourcePoint" />
            <mxPoint x="216" y="313" as="targetPoint" />
          </mxGeometry>
        </mxCell>
        <mxCell id="Dq3j0e-RF0Yl39A6yDo8-32" value="Use" style="endArrow=open;endSize=12;dashed=1;html=1;rounded=0;exitX=0.415;exitY=0.983;exitDx=0;exitDy=0;exitPerimeter=0;entryX=0.438;entryY=-0.012;entryDx=0;entryDy=0;entryPerimeter=0;" edge="1" parent="1" source="Dq3j0e-RF0Yl39A6yDo8-3" target="Dq3j0e-RF0Yl39A6yDo8-21">
          <mxGeometry width="160" relative="1" as="geometry">
            <mxPoint x="148" y="321" as="sourcePoint" />
            <mxPoint x="308" y="321" as="targetPoint" />
          </mxGeometry>
        </mxCell>
        <mxCell id="Dq3j0e-RF0Yl39A6yDo8-33" value="Use" style="endArrow=open;endSize=12;dashed=1;html=1;rounded=0;exitX=0.852;exitY=1;exitDx=0;exitDy=0;exitPerimeter=0;entryX=0.165;entryY=-0.004;entryDx=0;entryDy=0;entryPerimeter=0;" edge="1" parent="1" source="Dq3j0e-RF0Yl39A6yDo8-3" target="Dq3j0e-RF0Yl39A6yDo8-14">
          <mxGeometry width="160" relative="1" as="geometry">
            <mxPoint x="269" y="246" as="sourcePoint" />
            <mxPoint x="429" y="246" as="targetPoint" />
          </mxGeometry>
        </mxCell>
        <mxCell id="Dq3j0e-RF0Yl39A6yDo8-34" value="Use" style="endArrow=open;endSize=12;dashed=1;html=1;rounded=0;exitX=1;exitY=1;exitDx=0;exitDy=0;entryX=0.25;entryY=0;entryDx=0;entryDy=0;" edge="1" parent="1" source="Dq3j0e-RF0Yl39A6yDo8-3" target="Dq3j0e-RF0Yl39A6yDo8-24">
          <mxGeometry width="160" relative="1" as="geometry">
            <mxPoint x="319" y="247" as="sourcePoint" />
            <mxPoint x="479" y="247" as="targetPoint" />
          </mxGeometry>
        </mxCell>
        <mxCell id="Dq3j0e-RF0Yl39A6yDo8-35" value="Use" style="endArrow=open;endSize=12;dashed=1;html=1;rounded=0;exitX=0;exitY=1;exitDx=0;exitDy=0;entryX=0.848;entryY=0.011;entryDx=0;entryDy=0;entryPerimeter=0;" edge="1" parent="1" source="Dq3j0e-RF0Yl39A6yDo8-8" target="Dq3j0e-RF0Yl39A6yDo8-11">
          <mxGeometry width="160" relative="1" as="geometry">
            <mxPoint x="242" y="305" as="sourcePoint" />
            <mxPoint x="402" y="305" as="targetPoint" />
          </mxGeometry>
        </mxCell>
        <mxCell id="Dq3j0e-RF0Yl39A6yDo8-36" value="Use" style="endArrow=open;endSize=12;dashed=1;html=1;rounded=0;exitX=0.138;exitY=1.029;exitDx=0;exitDy=0;exitPerimeter=0;entryX=0.563;entryY=0.042;entryDx=0;entryDy=0;entryPerimeter=0;" edge="1" parent="1" source="Dq3j0e-RF0Yl39A6yDo8-8" target="Dq3j0e-RF0Yl39A6yDo8-21">
          <mxGeometry width="160" relative="1" as="geometry">
            <mxPoint x="360" y="341" as="sourcePoint" />
            <mxPoint x="339" y="369" as="targetPoint" />
          </mxGeometry>
        </mxCell>
        <mxCell id="Dq3j0e-RF0Yl39A6yDo8-37" value="Use" style="endArrow=open;endSize=12;dashed=1;html=1;rounded=0;exitX=0.586;exitY=0.975;exitDx=0;exitDy=0;exitPerimeter=0;entryX=0.37;entryY=0.034;entryDx=0;entryDy=0;entryPerimeter=0;" edge="1" parent="1" source="Dq3j0e-RF0Yl39A6yDo8-8" target="Dq3j0e-RF0Yl39A6yDo8-14">
          <mxGeometry width="160" relative="1" as="geometry">
            <mxPoint x="457" y="261" as="sourcePoint" />
            <mxPoint x="617" y="261" as="targetPoint" />
          </mxGeometry>
        </mxCell>
        <mxCell id="Dq3j0e-RF0Yl39A6yDo8-38" value="Use" style="endArrow=open;endSize=12;dashed=1;html=1;rounded=0;exitX=0.336;exitY=0.96;exitDx=0;exitDy=0;exitPerimeter=0;entryX=0.377;entryY=0.004;entryDx=0;entryDy=0;entryPerimeter=0;" edge="1" parent="1" source="Dq3j0e-RF0Yl39A6yDo8-5" target="Dq3j0e-RF0Yl39A6yDo8-24">
          <mxGeometry width="160" relative="1" as="geometry">
            <mxPoint x="598" y="321" as="sourcePoint" />
            <mxPoint x="758" y="321" as="targetPoint" />
          </mxGeometry>
        </mxCell>
        <mxCell id="Dq3j0e-RF0Yl39A6yDo8-40" value="" style="endArrow=classic;html=1;rounded=0;exitX=0.653;exitY=0.979;exitDx=0;exitDy=0;exitPerimeter=0;entryX=0.016;entryY=0.334;entryDx=0;entryDy=0;entryPerimeter=0;" edge="1" parent="1" source="Dq3j0e-RF0Yl39A6yDo8-11" target="Dq3j0e-RF0Yl39A6yDo8-17">
          <mxGeometry width="50" height="50" relative="1" as="geometry">
            <mxPoint x="126" y="599" as="sourcePoint" />
            <mxPoint x="176" y="549" as="targetPoint" />
          </mxGeometry>
        </mxCell>
        <mxCell id="Dq3j0e-RF0Yl39A6yDo8-41" value="" style="endArrow=classic;html=1;rounded=0;exitX=0.5;exitY=1;exitDx=0;exitDy=0;entryX=0.167;entryY=0.004;entryDx=0;entryDy=0;entryPerimeter=0;" edge="1" parent="1" source="Dq3j0e-RF0Yl39A6yDo8-21" target="Dq3j0e-RF0Yl39A6yDo8-17">
          <mxGeometry width="50" height="50" relative="1" as="geometry">
            <mxPoint x="309" y="595" as="sourcePoint" />
            <mxPoint x="359" y="545" as="targetPoint" />
          </mxGeometry>
        </mxCell>
        <mxCell id="Dq3j0e-RF0Yl39A6yDo8-42" value="" style="endArrow=classic;html=1;rounded=0;exitX=0.332;exitY=1.002;exitDx=0;exitDy=0;exitPerimeter=0;entryX=0.675;entryY=0;entryDx=0;entryDy=0;entryPerimeter=0;" edge="1" parent="1" source="Dq3j0e-RF0Yl39A6yDo8-14" target="Dq3j0e-RF0Yl39A6yDo8-17">
          <mxGeometry width="50" height="50" relative="1" as="geometry">
            <mxPoint x="692" y="555" as="sourcePoint" />
            <mxPoint x="742" y="505" as="targetPoint" />
          </mxGeometry>
        </mxCell>
        <mxCell id="Dq3j0e-RF0Yl39A6yDo8-43" value="" style="endArrow=classic;html=1;rounded=0;entryX=1.002;entryY=0.138;entryDx=0;entryDy=0;entryPerimeter=0;" edge="1" parent="1" source="Dq3j0e-RF0Yl39A6yDo8-24" target="Dq3j0e-RF0Yl39A6yDo8-17">
          <mxGeometry width="50" height="50" relative="1" as="geometry">
            <mxPoint x="696" y="642" as="sourcePoint" />
            <mxPoint x="746" y="592" as="targetPoint" />
          </mxGeometry>
        </mxCell>
      </root>
    </mxGraphModel>
  </diagram>
</mxfile>
